<?xml version="1.0" encoding="UTF-8" standalone="no"?>
<!-- Created with Inkscape (http://www.inkscape.org/) -->

<svg
   xmlns:osb="http://www.openswatchbook.org/uri/2009/osb"
   xmlns:dc="http://purl.org/dc/elements/1.1/"
   xmlns:cc="http://creativecommons.org/ns#"
   xmlns:rdf="http://www.w3.org/1999/02/22-rdf-syntax-ns#"
   xmlns:svg="http://www.w3.org/2000/svg"
   xmlns="http://www.w3.org/2000/svg"
   xmlns:sodipodi="http://sodipodi.sourceforge.net/DTD/sodipodi-0.dtd"
   xmlns:inkscape="http://www.inkscape.org/namespaces/inkscape"
   version="1.1"
   id="svg2"
   width="266"
   height="95.299995"
   viewBox="0 0 266 95.299996"
   sodipodi:docname="youjizz-logo-1.svg"
   inkscape:version="0.92.5 (2060ec1f9f, 2020-04-08)"
   inkscape:export-filename="/home/vikash/yj white logo/logo3.png"
   inkscape:export-xdpi="96"
   inkscape:export-ydpi="96">
  <metadata
     id="metadata8">
    <rdf:RDF>
      <cc:Work
         rdf:about="">
        <dc:format>image/svg+xml</dc:format>
        <dc:type
           rdf:resource="http://purl.org/dc/dcmitype/StillImage" />
        <dc:title></dc:title>
      </cc:Work>
    </rdf:RDF>
  </metadata>
  <defs
     id="defs6">
    <linearGradient
       id="linearGradient4585"
       osb:paint="solid">
      <stop
         style="stop-color:#000000;stop-opacity:1;"
         offset="0"
         id="stop4583" />
    </linearGradient>
  </defs>
  <sodipodi:namedview
     pagecolor="#ffffff"
     bordercolor="#666666"
     borderopacity="1"
     objecttolerance="10"
     gridtolerance="10"
     guidetolerance="10"
     inkscape:pageopacity="0"
     inkscape:pageshadow="2"
     inkscape:window-width="1294"
     inkscape:window-height="704"
     id="namedview4"
     showgrid="false"
     fit-margin-top="-0.7"
     fit-margin-left="0"
     fit-margin-right="0"
     fit-margin-bottom="0"
     inkscape:zoom="1.5185112"
     inkscape:cx="125.50533"
     inkscape:cy="-39.102813"
     inkscape:window-x="72"
     inkscape:window-y="27"
     inkscape:window-maximized="1"
     inkscape:current-layer="g945"
     inkscape:snap-grids="false" />
  <g
     id="g12"
     transform="matrix(0.87558432,0,0,1,26.50054,11.385333)">
    <g
       id="g4602"
       inkscape:export-xdpi="96"
       inkscape:export-ydpi="96">
      <g
         id="g4706">
        <g
           id="g4883">
          <g
             transform="matrix(1,0,0,0.91759882,0,6.9146676)"
             id="g4866">
            <g
               id="g4983"
               inkscape:export-xdpi="96"
               inkscape:export-ydpi="96">
              <g
                 transform="matrix(1.2488263,0,0,1.2467532,7.5310064,-20.706217)"
                 id="g61">
                <g
                   id="g939">
                  <g
                     id="g845">
                    <g
                       id="g881">
                      <g
                         id="g847">
                        <g
                           id="g871">
                          <g
                             id="g945">
                            <g
                               id="g858">
                              <path
                                 inkscape:connector-curvature="0"
                                 id="path28"
                                 d="m 84.961571,69.441979 -1.977127,-3.558021 3.655255,-2.454926 C 91.463272,60.189452 92.988912,55.845681 98.029542,31 100.31699,19.725 102.47809,9.2625 102.832,7.75 103.43894,5.1561335 103.83409,5 109.79191,5 c 3.47403,0 6.31644,0.2176006 6.31644,0.4835569 0,3.1354303 -12.10392,54.3551781 -13.31275,56.3351481 C 100.20839,66.056325 90.782237,73 87.616796,73 c -0.372947,0 -1.5678,-1.601109 -2.655225,-3.558021 z M 9.1191369,41.684526 C 10.037934,26.662042 17.900218,18 30.616894,18 43.529277,18.458577 44.431942,25.522359 44.410429,32.672699 44.567974,46.416985 36.774451,55.848805 23.959425,56.812091 12.782212,57.67288 8.549347,50.239371 9.1191369,41.684526 Z m 20.1146571,2.82481 c 1.562248,-2.747418 2.288306,-6.174342 2.330556,-11 C 31.618878,27.281377 31.379935,26.5 29.420922,26.5 c -3.520238,0 -6.365978,4.440785 -7.834514,12.225775 -1.095366,5.806749 -1.065418,7.53353 0.1525,8.792888 2.348851,2.428771 5.010295,1.360155 7.494886,-3.009327 z M 53.319551,55.116879 C 50.300875,52.526358 50.002899,44.649996 52.577409,35.5 c 0.928513,-3.3 1.706885,-8.120155 1.729714,-10.711456 0.04106,-4.660754 0.09293,-4.723339 4.820245,-5.815725 2.628305,-0.607348 5.049485,-0.871921 5.380401,-0.587941 1.716349,1.472909 1.569374,10.520397 -0.294732,18.143291 -2.181034,8.918899 -1.600005,11.417894 2.352119,10.116426 C 69.771092,45.588852 73.214463,37.396133 77.028264,21.75 77.65335,19.185582 78.098803,19 83.629099,19 c 5.558235,0 5.891329,0.141241 5.306395,2.25 -0.343256,1.2375 -1.502591,7.138175 -2.576289,13.112612 -1.828507,10.174419 -1.817635,13.683828 0.05523,17.837297 0.582429,1.291678 -0.271661,2.07216 -3.556544,3.25 C 80.48022,56.302459 78.10664,57 77.583276,57 77.059913,57 76.27785,54.975 75.845358,52.5 75.024091,47.800177 73.629957,46.702613 72.468932,49.841833 70.251407,55.837661 58.06974,59.193323 53.319551,55.116879 Z m 69.378429,0.05438 c -2.61335,-2.478135 -2.47378,-8.064712 0.58347,-23.35452 2.32025,-11.604035 2.76747,-12.733107 5.25577,-13.269053 1.49586,-0.322184 4.03067,-0.303433 5.63293,0.04167 3.5355,0.761496 3.55639,1.279534 0.66124,16.401377 -1.20998,6.319904 -1.9539,11.832404 -1.65315,12.25 C 133.47899,47.65833 134.48067,48 135.4042,48 c 1.17312,0 1.67914,1.167758 1.67914,3.875 0,3.54 -0.31481,3.929032 -3.64149,4.5 -5.99342,1.028669 -8.71072,0.724224 -10.74387,-1.203741 z m 18.75515,1.168893 c -4.32938,-1.033497 -2.34226,-5.750635 7.15061,-16.974536 5.05442,-5.976089 8.59395,-10.94815 7.86563,-11.049026 -10.95253,-1.516967 -10.06381,-0.987008 -10.06381,-6.001194 v -4.593978 l 6.11771,0.630599 c 3.36474,0.346829 9.72585,0.63451 14.1358,0.639291 l 8.01809,0.0087 -0.66362,3.509379 c -0.3823,2.021715 -3.58328,7.00267 -7.55108,11.75 -3.78811,4.532342 -7.86481,9.545446 -9.05932,11.140231 l -2.17186,2.89961 8.36101,-0.513376 c 5.31016,-0.326052 8.50944,-0.131215 8.76782,0.533961 0.35077,0.903063 17.15175,-16.973174 18.08233,-19.239598 0.40755,-0.992576 -3.78151,-2.047705 -8.20459,-2.066552 C 179.27876,27.001046 179.03334,26.693659 179.03334,23 v -4 l 7.86562,-0.0087 c 4.32609,-0.0048 10.61859,-0.292462 13.98333,-0.639291 L 207,17.72141 v 3.44351 c 0,3.674889 -3.60666,9.206973 -12.39308,19.009116 -2.79735,3.120724 -5.08608,6.210647 -5.08608,6.866495 0,0.843713 2.22051,1.071115 7.59264,0.777561 l 7.59265,-0.414891 1.22353,3.899337 c 0.67293,2.144636 0.88406,4.191414 0.46916,4.548396 -0.87693,0.754539 -61.90839,1.214264 -64.94569,0.48921 z M -23.250622,51.25 c 0.406431,-2.6125 1.321812,-7.45 2.03418,-10.75 1.223102,-5.665937 1.036225,-6.807319 -3.356423,-20.5 l -4.651638,-14.5 5.791809,-0.3060943 c 3.185495,-0.1683518 6.037425,-0.095316 6.337621,0.1623023 0.300197,0.2576181 1.340009,3.4563314 2.310693,7.108252 0.970686,3.65192 2.214955,6.503884 2.765045,6.337698 0.55009,-0.166187 2.9918274,-2.736927 5.426083,-5.712757 2.4342556,-2.975829 5.86544118,-6.3245836 7.6248554,-7.4416768 L 4.2305398,3.6166457 7.6990551,6.4683686 11.16757,9.3200915 7.065059,13.217009 C -3.5148519,23.266714 -9.1428107,34.399136 -10.451504,47.865766 L -11.241992,56 h -6.373798 -6.373798 z M 129.80036,11.919901 C 127.5091,10.774646 127.06507,5.9846446 128.96739,2.9342585 130.35014,0.71704052 136.90376,0.24589144 139.18084,2.2 c 2.15743,1.851432 1.6567,6.5782816 -0.93222,8.8 -2.55407,2.191811 -5.30445,2.49129 -8.44826,0.919901 z"
                                 style="fill:#ffffff;fill-opacity:1;stroke-width:1.07948029"
                                 sodipodi:nodetypes="ccssssscsccccccssssssssssssssscsccsssscccsscsssccscscscccsccscccsccscsssscccccssscscscsscccsscccsscsss" />
                              <path
                                 inkscape:connector-curvature="0"
                                 id="path22"
                                 d="M 0,38.5 V 0 h 71.19113 c 57.29734,0 70.85663,0.24459247 69.47717,1.2532804 -2.54512,1.8610338 -3.27573,7.9964321 -1.19947,10.0726896 1.73251,1.732515 6.14152,2.209093 8.21861,0.888365 3.39218,-2.156938 3.48078,-10.1888773 0.12718,-11.53051292 C 147.09158,0.39456204 161.4625,0.12236842 179.75,0.07894737 L 213,0 V 38.5 77 H 106.5 0 Z m 109.53984,32.472589 c 8.61831,-5.929553 9.1258,-7.176304 14.52605,-35.685903 2.68646,-14.182677 4.89564,-27.0466427 4.90929,-28.5865899 0.0246,-2.7760272 -0.0237,-2.7973463 -5.664,-2.5 L 117.62236,4.5 112.94192,30.571449 c -2.57424,14.339297 -5.18648,27.016997 -5.80498,28.172667 -0.61849,1.15567 -2.52071,3.193894 -4.22716,4.529387 l -3.102623,2.428169 2.116743,4.149164 C 103.08811,72.132876 104.28792,74 104.59015,74 c 0.30222,0 2.52959,-1.362335 4.94969,-3.027411 z M 142.78034,71.75 c 0.56388,-0.6875 0.94507,-2.825 0.84711,-4.75 -0.15334,-3.012844 -0.55737,-3.544042 -2.90279,-3.816422 C 138.07534,62.875904 138,63.007239 138,67.933578 138,72.223198 138.28787,73 139.87756,73 c 1.03265,0 2.3389,-0.5625 2.90278,-1.25 z M 139,69.5 c 0,-0.825 0.675,-1.5 1.5,-1.5 0.825,0 1.5,0.675 1.5,1.5 0,0.825 -0.675,1.5 -1.5,1.5 -0.825,0 -1.5,-0.675 -1.5,-1.5 z m 0,-3.916667 C 139,64.7125 139.7125,64 140.58333,64 c 0.87084,0 1.40521,0.534375 1.1875,1.1875 C 141.15276,67.041723 139,67.34926 139,65.583333 Z m 8,1.85765 C 147,63.989616 146.62086,62.116288 146,62.5 144.24076,63.587269 144.8384,73 146.66667,73 146.85,73 147,70.498442 147,67.440983 Z M 154,71 c 0.76049,-1.420989 0.76049,-2.579011 0,-4 -2.26407,-4.230452 -7.17585,-0.876128 -5.16846,3.529614 C 150.19125,73.513861 152.54021,73.727642 154,71 Z m -3.81955,-2.25 C 150.3562,67.5125 150.95,66.5 151.5,66.5 c 0.55,0 1.1438,1.0125 1.31955,2.25 0.21988,1.548168 -0.19173,2.25 -1.31955,2.25 -1.12782,0 -1.53943,-0.701832 -1.31955,-2.25 z m 8.85499,1.440983 c 0.0264,-1.257776 0.37412,-1.079952 1.35748,0.694117 1.46805,2.648481 2.0413,2.156265 3.06894,-2.6351 0.79851,-3.723036 -0.0873,-4.342183 -1.4307,-1 l -0.90439,2.25 -0.0634,-2.25 c -0.0349,-1.2375 -0.44462,-2.25 -0.91058,-2.25 -0.46595,0 -1.33549,1.0125 -1.93232,2.25 l -1.08513,2.25 -0.0677,-2.25 c -0.0372,-1.2375 -0.548,-2.25 -1.13507,-2.25 -0.63188,0 -0.80351,0.918031 -0.42065,2.25 0.3557,1.2375 0.86843,3.044034 1.13938,4.014521 0.58905,2.109783 2.33385,1.324112 2.3841,-1.073538 z M 172,70 c 0.70373,0 1.92228,0.7875 2.70789,1.75 1.30179,1.594922 1.37732,1.510214 0.85226,-0.955897 C 174.62878,66.419656 173.11888,63 172.11875,63 c -0.51191,0 -1.64805,2.105162 -2.52475,4.678139 -1.91508,5.620453 -1.95266,6.378125 -0.20195,4.071861 C 170.12269,70.7875 171.29627,70 172,70 Z m -1,-1.940983 c 0,-0.517541 0.45,-1.219098 1,-1.559017 0.55,-0.339919 1,0.08352 1,0.940983 C 173,68.298442 172.55,69 172,69 c -0.55,0 -1,-0.423442 -1,-0.940983 z M 186,72 c 0,-0.55 -0.87413,-1 -1.9425,-1 -1.55859,0 -2.01816,-0.839974 -2.32529,-4.25 -0.36597,-4.063229 -0.39047,-4.019283 -0.5575,1 -0.16572,4.979922 -0.0461,5.25 2.32529,5.25 1.375,0 2.5,-0.45 2.5,-1 z m 6.16846,-1.470386 C 194.17585,66.123872 189.26407,62.769548 187,67 c -0.76049,1.420989 -0.76049,2.579011 0,4 1.45979,2.727642 3.80875,2.513861 5.16846,-0.470386 z M 188.18045,68.75 C 188.3562,67.5125 188.95,66.5 189.5,66.5 c 0.55,0 1.1438,1.0125 1.31955,2.25 0.21988,1.548168 -0.19173,2.25 -1.31955,2.25 -1.12782,0 -1.53943,-0.701832 -1.31955,-2.25 z m 10.61702,0.28362 c -0.23504,-2.79206 -0.76965,-3.60068 -2.54747,-3.853171 -1.23948,-0.176034 -2.25,0.208858 -2.25,0.856989 0,0.647097 0.66059,0.923048 1.46797,0.613225 0.80739,-0.309823 1.73395,-0.132968 2.05902,0.393011 C 197.85207,67.569653 197.19148,68 196.05902,68 194.72906,68 194,68.649151 194,69.833333 c 0,2.376503 0.7476,3.061382 3.14466,2.880817 1.60049,-0.120562 1.89692,-0.780658 1.65281,-3.68053 z M 195,70 c 0,-0.55 0.675,-1 1.5,-1 0.825,0 1.5,0.45 1.5,1 0,0.55 -0.675,1 -1.5,1 -0.825,0 -1.5,-0.45 -1.5,-1 z m 10.41821,2.393011 C 207.20243,71.708343 207.74181,63 206,63 c -0.55,0 -1,0.397516 -1,0.883369 0,0.485852 -0.9,1.118724 -2,1.40638 -1.42534,0.372734 -2,1.364016 -2,3.449965 0,4.082279 1.04612,4.947289 4.41821,3.653297 z M 202.38,69.547887 c -0.68937,-1.796483 0.42805,-3.784555 1.6891,-3.005182 C 205.33626,67.325852 205.25343,71 203.96862,71 203.40135,71 202.68648,70.346549 202.38,69.547887 Z M 88.813358,68.75 88.5,65.5 44.75,65.239489 1,64.978978 V 68.489489 72 H 45.063358 89.126717 Z M 53.949652,57.01444 C 58.86678,55.604226 64.666302,49.520747 66.576666,43.769182 68.490768,38.006359 68.772866,26.31263 67.074347,23.138919 64.214278,17.79483 56.246169,15.600896 49.717881,18.36 41.342846,21.89961 36.725387,30.44724 36.590278,42.661219 36.508587,50.046169 36.737792,51.079077 39,53.520578 c 4.096105,4.420745 8.29563,5.40221 14.949652,3.493862 z M 48,44.049221 c 0,-6.558087 1.962155,-13.66504 4.406865,-15.961725 2.089034,-1.962546 2.412102,-2.010554 3.632705,-0.539817 1.100309,1.325791 1.120617,2.892197 0.113632,8.764482 C 54.76615,44.400825 52.864223,48 49.976947,48 48.34128,48 48,47.317977 48,44.049221 Z M 84.21371,57 c 1.127575,0 3.537764,-1.577345 5.355975,-3.505211 3.553589,-3.767902 3.830041,-3.696972 4.892173,1.255211 0.383379,1.7875 0.84899,3.25 1.034692,3.25 0.185702,0 2.395598,-0.882144 4.91088,-1.96032 4.30449,-1.845121 4.51504,-2.113391 3.58291,-4.5651 C 102.60238,47.823974 102.75764,41.891422 104.5,32 c 0.8235,-4.675 1.49788,-9.761017 1.49863,-11.30226 10e-4,-2.752365 -0.0921,-2.796877 -5.24863,-2.5 L 95.5,18.5 94.230958,25 c -1.998737,10.237486 -4.022614,16.465416 -6.285662,19.342415 -4.205172,5.34601 -4.870552,2.628569 -2.562165,-10.463988 0.739081,-4.191866 1.051345,-9.366866 0.69392,-11.5 -0.619331,-3.696218 -0.819717,-3.873477 -4.265343,-3.773065 -6.282087,0.183071 -6.807996,0.729405 -6.84733,7.113253 C 74.944787,28.898377 74.276816,34.2 73.479999,37.5 c -1.900553,7.871105 -1.856695,13.517178 0.127,16.349299 1.794602,2.562155 5.199812,4.253343 7.224788,3.588171 C 81.564271,57.196862 83.086136,57 84.21371,57 Z M 146.25,56.357955 C 149.14813,55.541955 148.36587,47 145.39301,47 c -1.81583,0 -1.77122,-1.061068 0.63833,-15.183689 1.11724,-6.548231 1.76568,-12.335723 1.44098,-12.861093 C 147.14763,18.429848 144.71101,18 142.05761,18 c -5.63502,0 -4.87949,-1.647858 -8.11255,17.693901 -2.60942,15.610853 -2.29524,18.800832 2.07155,21.033061 2.24167,1.145907 5.23651,1.037916 10.23339,-0.369007 z m 60.249,0.0041 c 1.04241,-0.400008 1.29811,-1.361282 0.85555,-3.216267 -1.4012,-5.873121 -2.067,-6.346115 -8.42189,-5.983035 -3.5234,0.201306 -5.87509,-0.06588 -5.83297,-0.662707 0.0388,-0.55 3.22514,-5.387928 7.08072,-10.750952 4.98232,-6.930274 7.16532,-10.907764 7.54654,-13.75 L 208.26334,18 H 195.63167 183 v 5 5 h 5.08651 5.08651 l -3.12289,4.25 c -7.80172,10.617505 -12.42696,16.11952 -12.74605,15.162233 -0.22604,-0.678125 -2.51337,-0.784666 -6.572,-0.306116 -3.4239,0.403711 -6.38635,0.572942 -6.58323,0.376068 -0.19687,-0.196873 3.0641,-5.295967 7.2466,-11.33132 C 177.41704,27.461706 179,24.430465 179,21.588748 V 18 H 166.5 154 v 5 5 h 5 c 2.75,0 5,0.222189 5,0.493752 0,0.271564 -3.375,5.028671 -7.5,10.57135 -6.32895,8.504078 -7.5,10.686613 -7.5,13.978028 v 3.900431 l 13.75,0.378487 c 15.89919,0.437647 41.57498,-0.125789 43.749,-0.960039 z M 21,50.210099 C 21,37.644817 25.739567,25.371688 34.600999,14.990253 37.020449,12.155794 39,9.5649385 39,9.2327967 39,7.9098774 34.552887,4 33.048192,4 30.333631,4 27.344226,6.7323289 23.092148,13.099866 18.685442,19.69896 18.745357,19.723545 16.756097,10.5 L 15.462066,4.5 9.731033,4.2000961 C 5.4296808,3.9750072 4,4.2380609 4,5.2545758 4,5.9994868 5.6223219,12.423256 7.6051599,19.529618 10.55599,30.105203 11.10006,33.453029 10.602824,37.975139 10.268701,41.013812 9.7109133,46.5375 9.3632962,50.25 L 8.7312651,57 H 14.865633 21 Z"
                                 style="fill:#ffffff;fill-opacity:0" />
                              <path
                                 sodipodi:nodetypes="cc"
                                 inkscape:connector-curvature="0"
                                 id="path18"
                                 d="m 88.689326,70.75 c -206.036876,6.212774 -103.018439,3.106387 0,0 z"
                                 style="fill:#ffffff" />
                              <path
                                 inkscape:connector-curvature="0"
                                 id="path14"
                                 d="m -29.648671,69.676825 v -2.5 h 50.833118 50.833117 v 2.5 2.5 H 21.184447 -29.648671 Z"
                                 style="fill:#fd0000;stroke-width:1.0810076" />
                              <text
                                 id="text4591"
                                 y="77.24884"
                                 x="99.871956"
                                 style="font-style:normal;font-weight:normal;font-size:17.86673737px;line-height:18.7580986px;font-family:sans-serif;letter-spacing:0px;word-spacing:0px;fill:#000000;fill-opacity:1;stroke:none;stroke-width:1.48889446"
                                 xml:space="preserve"
                                 transform="scale(1.0821062,0.92412373)"><tspan
                                   y="91.269051"
                                   x="99.871956"
                                   id="tspan4589"
                                   sodipodi:role="line"
                                   style="font-size:14.66622925px;line-height:18.7580986px;fill:#000000;fill-opacity:1;stroke-width:1.48889446" /></text>
                              <flowRoot
                                 xml:space="preserve"
                                 id="flowRoot4685"
                                 style="font-style:normal;font-weight:normal;font-size:13.33333302px;line-height:1.25;font-family:sans-serif;letter-spacing:0px;word-spacing:0px;fill:#000000;fill-opacity:1;stroke:none"><flowRegion
                                   id="flowRegion4687"><rect
                                   id="rect4689"
                                   width="1.3170795"
                                   height="18.109844"
                                   x="207.44002"
                                   y="50.32914" /></flowRegion><flowPara
                                   id="flowPara4691" /></flowRoot>                              <rect
                                 y="65.75"
                                 x="168.85623"
                                 height="18.164667"
                                 width="1.5424665"
                                 id="rect4764"
                                 style="fill:#ffffff;fill-opacity:0;stroke:#f9f9f9;stroke-width:0;stroke-miterlimit:4;stroke-dasharray:none" />
                              <rect
                                 y="69.5"
                                 x="161.12677"
                                 height="0.24675401"
                                 width="2.5869501"
                                 id="rect4766"
                                 style="fill:#ffffff;fill-opacity:0;stroke:#f9f9f9;stroke-width:0;stroke-miterlimit:4;stroke-dasharray:none" />
                              <text
                                 transform="scale(1.0228611,0.97764984)"
                                 id="text846"
                                 y="77.50621"
                                 x="104.05614"
                                 style="font-style:normal;font-weight:normal;font-size:10.7291317px;line-height:7.15275431px;font-family:sans-serif;letter-spacing:0px;word-spacing:0px;fill:#000000;fill-opacity:1;stroke:none;stroke-width:0.89409429"
                                 xml:space="preserve"><tspan
                                   style="stroke-width:0.89409429"
                                   y="83.869644"
                                   x="104.05614"
                                   id="tspan844"
                                   sodipodi:role="line" /></text>
                              <text
                                 transform="scale(1.0228611,0.97764984)"
                                 id="text850"
                                 y="73.427788"
                                 x="142.76579"
                                 style="font-style:normal;font-weight:normal;font-size:9.53700542px;line-height:7.15275431px;font-family:sans-serif;letter-spacing:0px;word-spacing:0px;fill:#ffffff;fill-opacity:1;stroke:none;stroke-width:0.89409429;"
                                 xml:space="preserve"><tspan
                                   style="font-size:9.53700542px;stroke-width:0.89409429;fill:#ffffff;"
                                   y="73.427788"
                                   x="142.76579"
                                   id="tspan848"
                                   sodipodi:role="line">Blow A Load</tspan></text>
                            </g>
                          </g>
                        </g>
                      </g>
                    </g>
                  </g>
                </g>
              </g>
            </g>
          </g>
        </g>
      </g>
    </g>
  </g>
</svg>
